<svg width="52" height="52" viewBox="0 0 52 52" fill="none" xmlns="http://www.w3.org/2000/svg">
<path d="M25.4999 40.0333C30.1573 40.0333 33.7981 38.7503 36.2742 36.2742C38.7503 33.7981 40.0333 30.1573 40.0333 25.4999C40.0333 20.8426 38.7503 17.2018 36.2742 14.7256C33.7981 12.2495 30.1573 10.9666 25.4999 10.9666C20.8426 10.9666 17.2018 12.2495 14.7256 14.7256C12.2495 17.2018 10.9666 20.8426 10.9666 25.4999C10.9666 30.1573 12.2495 33.7981 14.7256 36.2742C17.2018 38.7503 20.8426 40.0333 25.4999 40.0333ZM25.4999 14.0541C29.3889 14.0541 32.2398 14.9992 34.1202 16.8796C36.0006 18.7601 36.9458 21.6109 36.9458 25.4999C36.9458 29.3889 36.0006 32.2398 34.1202 34.1202C32.2398 36.0006 29.3889 36.9458 25.4999 36.9458C21.6109 36.9458 18.7601 36.0006 16.8796 34.1202C14.9992 32.2398 14.0541 29.3889 14.0541 25.4999C14.0541 21.6109 14.9992 18.7601 16.8796 16.8796C18.7601 14.9992 21.6109 14.0541 25.4999 14.0541Z" fill="white" stroke="white" stroke-width="0.4"/>
<path fill-rule="evenodd" clip-rule="evenodd" d="M35.7068 15.7903C37.136 17.8099 38.0417 20.6507 38.0417 24.6042C38.0417 33.8715 33.1147 38.0417 25.5001 38.0417C21.4243 38.0417 17.8618 37.1125 15.4308 34.6854L35.7068 15.7903Z" fill="white"/>
</svg>
